<svg width="60" height="24" viewBox="0 0 60 24" fill="none" xmlns="http://www.w3.org/2000/svg">
<path d="M19.4519 14.8355C18.6181 15.3317 17.5541 15.6789 16.772 15.8898C16.7558 14.6373 17.1468 13.4809 17.8273 12.779C18.2802 12.3118 18.8413 12.0652 19.4511 12.0652C20.3855 12.0652 20.7449 12.5659 20.7699 13.0353C20.8142 13.6835 20.3709 14.2893 19.4525 14.8355M24.6384 20.2584C24.9336 19.9513 24.9976 19.4894 24.8128 19.1056L24.5698 18.602C24.2053 17.8457 23.2626 17.5879 22.5542 18.0402C21.6875 18.593 20.921 18.8277 19.9187 18.9768C19.0143 19.1109 17.7352 19.0483 17.2485 18.1505C18.3206 17.9165 20.0078 17.4016 21.6345 16.465C23.4395 15.4263 24.3113 14.1917 24.2266 12.7946C24.1626 11.8409 23.7053 10.9654 22.9386 10.329C21.9895 9.54072 20.8701 9.14136 19.1447 9.14136C17.4193 9.14136 16.1785 9.83131 15.1203 10.9646C13.6415 12.5472 13.0414 14.7192 13.154 16.3324C13.3934 20.04 16.0194 22.0003 19.2957 22.0003C21.7257 22.0003 23.7118 21.2241 24.6384 20.2599" fill="white"/>
<path d="M42.3662 19.0752C42.2382 19.0752 42.0987 19.0043 41.9648 18.8702C41.6321 18.5371 41.297 17.7704 41.2982 16.8063C41.2924 14.9375 41.6843 13.5941 42.4634 12.8132C42.9581 12.3177 43.591 12.0659 44.3448 12.0659C44.8339 12.0659 45.2675 12.2313 45.5665 12.5308C45.9149 12.8803 46.0895 13.4026 46.0864 14.0822V14.0836C46.104 15.6454 44.5115 17.377 44.023 17.8703C43.2484 18.6526 42.5915 19.0752 42.3662 19.0752ZM49.6906 19.3217L49.7061 13.7394C49.7082 12.5145 49.2781 11.4341 48.4606 10.6167C47.4966 9.65175 46.0784 9.14136 44.3596 9.14136C42.4971 9.14136 40.8048 9.80897 39.5958 11.0213C38.2313 12.3885 37.5148 14.3891 37.5234 16.8055C37.5175 17.681 37.8363 19.4551 39.0863 20.7114C39.7955 21.4244 40.6857 21.7858 41.733 21.7858C43.216 21.7858 44.9965 20.3708 46.1093 18.7734L46.0954 19.9364C46.1151 21.2195 46.5274 21.7866 47.8509 21.7866H48.8893C49.3392 21.7866 49.7036 21.4207 49.7008 20.9707L49.6906 19.3225V19.3217Z" fill="white"/>
<path d="M56.164 6.6518C56.1918 6.49908 56.1446 6.34856 56.035 6.23904L53.1615 3.36904C53.052 3.25952 52.9008 3.21258 52.7477 3.24015C52.5947 3.26846 52.4709 3.36532 52.4067 3.50688L50.0579 8.72384C49.9767 8.90488 50.0131 9.10383 50.1535 9.24389C50.2427 9.33257 50.3584 9.38173 50.4797 9.38173C50.546 9.38173 50.6114 9.36757 50.6741 9.33927L55.8965 6.99306C56.0387 6.92896 56.1359 6.80529 56.164 6.65254" fill="white"/>
<path d="M48.2987 7.82306C48.3879 7.946 48.524 8.01678 48.6721 8.01678C48.7134 8.01678 48.7554 8.01083 48.7971 8.00037C48.9887 7.94899 49.1205 7.79473 49.1396 7.60252L49.8799 2.51296C49.8953 2.35873 49.8364 2.21195 49.7185 2.11137C49.6 2.01079 49.446 1.97651 49.2957 2.016L45.3709 3.06655C45.2206 3.10678 45.1052 3.21407 45.0528 3.3601C45.0006 3.50614 45.0235 3.6626 45.117 3.79223L48.2996 7.82306H48.2987Z" fill="white"/>
<path d="M57.1204 9.72543C57.0195 9.6077 56.8729 9.54883 56.714 9.5645L51.6286 10.3028C51.4311 10.323 51.2765 10.4541 51.2256 10.6456C51.1741 10.8371 51.242 11.0271 51.3996 11.1411L55.4414 14.3255C55.5219 14.3836 55.6151 14.4141 55.7123 14.4141C55.7663 14.4141 55.8194 14.4052 55.87 14.3866C56.0166 14.3344 56.1234 14.2189 56.1638 14.0684L57.2154 10.1479C57.2558 9.99812 57.2204 9.84389 57.1204 9.72543Z" fill="white"/>
<path d="M11.0247 21.7245H12.5623C13.0144 21.7245 13.2832 21.2193 13.0299 20.8452L9.10779 15.0476L12.5056 10.5717C12.8333 10.1396 12.5247 9.51963 11.982 9.52037H11.8369C11.8369 9.52037 10.7434 9.53305 10.3273 9.57847C9.61812 9.65599 8.94138 9.91677 8.51424 10.4875L5.57747 14.415V5.53033C5.57747 4.9581 5.11278 4.49463 4.53987 4.49463H3.52363C2.74893 4.49463 2.11857 5.12424 2.11857 5.89692L2 20.688C2 21.2596 2.46541 21.7245 3.0376 21.7245H4.18344C4.95299 21.7245 5.57747 21.1008 5.57747 20.3326V15.6951L8.78008 20.5218C9.27865 21.2738 10.1211 21.7252 11.0239 21.7252" fill="white"/>
<path d="M35.3018 21.7245H36.8395C37.2915 21.7245 37.5603 21.2193 37.307 20.8452L33.3849 15.0476L36.7827 10.5717C37.1104 10.1396 36.8018 9.51963 36.259 9.52037H36.114C36.114 9.52037 35.0204 9.53305 34.6044 9.57847C33.8953 9.65599 33.2192 9.91677 32.7914 10.4875L29.8545 14.415V5.53033C29.8545 4.9581 29.3899 4.49463 28.8171 4.49463H27.8008C27.0261 4.49463 26.3957 5.12424 26.3957 5.89692L26.2771 20.688C26.2771 21.2596 26.7425 21.7245 27.3147 21.7245H28.4606C29.2301 21.7245 29.8545 21.1008 29.8545 20.3326V15.6951L33.0572 20.5218C33.5559 21.2738 34.3983 21.7252 35.3012 21.7252" fill="white"/>
</svg>
